<?xml version="1.0" standalone="no"?>
<!DOCTYPE svg PUBLIC "-//W3C//DTD SVG 20010904//EN"
 "http://www.w3.org/TR/2001/REC-SVG-20010904/DTD/svg10.dtd">
<svg version="1.0" xmlns="http://www.w3.org/2000/svg"
 width="256.000000pt" height="256.000000pt" viewBox="0 0 256.000000 256.000000"
 preserveAspectRatio="xMidYMid meet">

<g transform="translate(0.000000,256.000000) scale(0.100000,-0.100000)"
fill="#000000" stroke="none">
<path d="M808 2344 c-35 -19 -48 -43 -48 -92 l0 -40 -59 -10 c-103 -18 -256
-116 -305 -196 l-30 -49 2 -626 c3 -618 6 -696 23 -685 7 4 11 -20 8 -52 0 -3
11 -14 25 -25 15 -11 26 -26 26 -33 0 -6 22 -34 50 -61 27 -26 46 -53 43 -58
-3 -6 -1 -7 5 -3 6 4 19 -2 29 -13 9 -12 44 -30 78 -41 56 -18 82 -19 355 -16
162 2 312 7 333 11 24 5 42 3 52 -5 11 -9 64 -10 217 -5 112 5 221 8 243 9 22
1 47 5 55 11 39 26 103 54 112 49 4 -3 7 -1 6 4 -2 6 18 31 45 56 26 25 47 52
47 60 0 16 37 83 57 104 10 10 13 67 13 229 0 119 -2 214 -5 212 -2 -3 -7 -54
-10 -115 -14 -287 -20 -330 -59 -401 -14 -26 -15 -26 -16 -5 0 12 4 22 9 22
22 0 23 42 2 61 l-21 20 0 -58 c0 -39 -6 -65 -18 -80 -22 -28 -170 -113 -197
-113 -11 0 -54 20 -95 45 -41 25 -79 45 -83 45 -4 0 -43 -20 -86 -45 -44 -25
-91 -45 -107 -45 -18 0 -59 18 -102 45 -40 25 -77 45 -84 45 -6 0 -46 -20 -89
-45 -87 -50 -109 -54 -159 -25 -19 11 -58 32 -86 46 l-51 26 -79 -46 c-43 -25
-90 -46 -103 -46 -27 0 -168 79 -196 110 -10 12 -22 40 -26 63 -7 35 -7 31 -4
-19 2 -33 8 -69 12 -80 6 -17 5 -17 -10 -6 -9 8 -15 23 -14 35 1 15 -5 22 -23
26 -33 8 -68 78 -81 162 -11 75 -25 504 -24 770 0 135 3 190 13 201 7 9 9 23
5 34 -4 12 12 2 42 -24 32 -28 69 -49 106 -60 l57 -16 -15 -41 c-20 -56 -27
-153 -15 -198 10 -34 8 -43 -24 -98 -58 -104 -40 -133 67 -110 49 11 57 10
110 -16 51 -25 57 -31 52 -51 -4 -17 1 -28 18 -40 13 -9 28 -16 32 -14 5 1 16
-16 25 -38 15 -34 21 -40 49 -40 17 0 38 -3 47 -6 9 -3 16 -2 16 4 0 6 -18 13
-40 17 -45 8 -81 44 -73 74 8 31 35 48 85 53 40 5 50 2 68 -17 20 -21 20 -24
5 -33 -12 -6 -28 -6 -46 2 -24 8 -32 7 -46 -7 -16 -16 -16 -17 11 -17 15 0 36
-5 47 -11 24 -12 46 2 60 38 5 13 18 27 30 32 l22 8 -21 15 c-21 14 -20 15 30
38 72 33 168 130 206 210 25 54 41 72 87 103 59 40 60 39 12 -31 -38 -57 -45
-82 -57 -231 -24 -267 -22 -281 29 -281 l26 -1 -24 -19 c-28 -24 -88 -26 -119
-4 -24 17 -27 13 -12 -16 6 -11 26 -21 50 -25 39 -7 39 -7 24 -31 -22 -33 -11
-30 76 20 71 41 75 46 83 87 8 41 20 58 40 59 4 0 7 -19 7 -42 l0 -43 35 55
c25 40 35 49 36 35 1 -11 4 -4 8 15 5 30 15 40 74 74 73 42 78 49 191 256 25
47 53 99 62 115 10 17 21 37 25 45 55 104 136 230 155 240 13 7 27 23 31 34 6
20 7 20 14 -4 4 -14 7 -42 8 -62 1 -21 6 -38 11 -38 6 0 10 3 10 8 0 4 5 59
10 122 8 98 14 124 40 174 35 68 37 96 11 151 -23 50 -68 93 -145 139 -93 56
-172 45 -237 -33 -33 -39 -35 -40 -74 -31 -22 5 -83 10 -135 10 l-96 0 4 40
c5 52 -26 97 -72 106 -43 8 -62 -3 -143 -80 l-66 -64 -111 -4 -111 -5 -47 41
c-139 122 -156 130 -210 100z m84 -41 c36 -32 11 -103 -35 -103 -25 0 -67 37
-67 60 0 50 64 78 102 43z m637 -17 c12 -26 12 -33 0 -55 -29 -52 -109 -27
-109 33 0 61 83 77 109 22z m-139 -37 c0 -6 -13 -26 -29 -44 -16 -18 -37 -55
-46 -81 -10 -27 -22 -53 -27 -58 -16 -19 -7 39 13 84 34 75 89 136 89 99z
m687 -14 c43 -26 57 -40 28 -28 -9 3 -15 2 -14 -3 7 -28 -15 -44 -60 -44 -34
0 -42 3 -31 10 11 7 6 8 -17 4 -20 -4 -39 -2 -47 5 -11 10 -17 7 -29 -10 -20
-27 -54 -20 -38 8 49 85 126 106 208 58z m-1085 -12 c37 -40 68 -107 67 -145
-1 -30 -2 -28 -20 23 -11 31 -35 74 -54 97 -19 22 -35 43 -35 46 0 13 18 4 42
-21z m-183 -52 c14 -8 36 -10 55 -6 94 19 91 19 114 -19 l21 -36 -43 -29 c-23
-16 -58 -47 -77 -68 l-35 -38 -48 53 c-57 62 -91 82 -165 97 l-54 11 37 18
c69 32 152 40 195 17z m457 3 c-3 -9 -6 -19 -6 -23 0 -3 -39 -6 -87 -5 -79 1
-87 3 -94 22 -8 22 -7 22 92 22 88 0 100 -2 95 -16z m212 -14 c11 0 37 7 58
16 31 13 63 15 152 12 115 -4 152 -17 114 -37 -11 -6 -23 -19 -27 -30 -5 -17
-8 -18 -48 -4 -26 9 -59 13 -84 9 -49 -6 -130 -45 -156 -74 -19 -20 -19 -20
-74 18 -30 22 -60 41 -66 43 -14 4 22 65 42 70 9 2 28 -2 43 -10 15 -7 36 -13
46 -13z m457 -81 c165 -95 235 -147 235 -175 0 -40 -25 -38 -96 8 -37 23 -110
68 -162 98 -108 62 -127 83 -98 106 11 8 23 14 26 14 3 0 46 -23 95 -51z
m-689 14 c11 -35 21 -48 42 -51 13 -2 22 4 27 17 8 27 12 26 66 -7 96 -61 141
-141 147 -264 4 -76 2 -92 -21 -141 -34 -74 -103 -141 -183 -179 -59 -28 -71
-30 -157 -26 -71 2 -103 8 -139 26 -74 37 -134 96 -170 170 -28 57 -33 76 -32
142 1 116 45 201 139 266 52 35 75 38 75 8 0 -8 10 -14 25 -14 21 0 25 5 25
28 0 16 3 32 7 35 3 4 37 7 75 7 57 0 70 -3 74 -17z m981 -50 c-8 -46 -35 -89
-49 -75 -6 6 -3 24 11 50 12 23 21 54 21 69 1 25 2 26 11 9 6 -10 9 -34 6 -53z
m-1542 28 c42 -19 135 -111 135 -133 0 -7 -7 -35 -15 -62 -8 -27 -15 -65 -16
-85 -1 -34 -6 -39 -81 -89 -71 -47 -84 -52 -116 -46 -76 14 -141 62 -176 131
-23 45 -21 144 3 191 51 98 166 139 266 93z m1039 8 l38 -11 -27 -28 c-17 -18
-26 -36 -24 -51 2 -13 -1 -31 -6 -38 -5 -8 -37 -62 -72 -120 l-63 -105 0 47
c0 55 -32 158 -63 201 l-21 29 37 32 c59 51 125 65 201 44z m137 -61 c21 -11
36 -25 33 -30 -5 -7 10 -12 29 -9 4 0 7 -3 7 -9 0 -5 5 -10 10 -10 6 0 18 -8
28 -17 10 -10 48 -39 85 -65 68 -48 86 -81 51 -95 -19 -7 -41 4 -214 110 -134
81 -155 102 -130 132 18 21 56 18 101 -7z m-6 -158 c-7 -12 61 -52 82 -48 9 2
19 -4 20 -12 2 -8 -58 -125 -133 -260 -75 -135 -141 -258 -146 -273 -10 -27
-13 -28 -66 -25 -54 3 -57 4 -66 36 -8 30 -12 32 -48 30 -41 -2 -58 11 -58 45
0 9 -6 17 -14 17 -10 0 3 31 39 93 29 50 87 153 128 227 42 74 92 161 111 192
l35 58 60 -36 c34 -20 59 -40 56 -44z m169 -162 c-9 -18 -43 -78 -74 -133 -32
-55 -94 -170 -140 -255 -45 -85 -83 -156 -85 -159 -2 -2 -11 -1 -19 2 -12 5
-2 28 43 109 32 57 98 174 147 261 81 144 123 207 139 207 3 0 -2 -15 -11 -32z
m-1214 -43 c19 -60 94 -160 148 -197 26 -17 52 -39 59 -47 6 -9 15 -13 18 -9
12 11 35 -19 35 -44 0 -13 -7 -31 -14 -41 -14 -18 -16 -18 -48 -1 -18 9 -55
35 -83 57 -27 23 -44 34 -37 27 6 -8 12 -20 12 -26 0 -15 -97 -37 -134 -30
-24 4 -25 3 -15 -17 6 -12 28 -43 49 -68 l38 -46 -80 29 c-45 16 -83 27 -85
25 -2 -2 14 -20 36 -40 51 -46 153 -75 163 -47 2 7 19 5 48 -5 42 -15 47 -14
107 7 35 13 77 35 93 50 16 14 35 28 42 31 7 3 -2 9 -21 13 l-34 7 40 19 c22
10 50 28 61 38 21 20 52 27 52 13 0 -16 -40 -68 -84 -109 -90 -83 -224 -126
-329 -104 -102 21 -200 111 -227 208 -30 108 3 239 73 295 60 48 91 66 98 59
4 -4 12 -25 19 -47z m615 -347 c9 -30 14 -33 48 -34 33 0 40 -5 55 -35 16 -31
21 -34 60 -33 39 1 43 -2 50 -30 6 -21 16 -32 33 -36 21 -5 17 -10 -46 -47
-112 -65 -115 -66 -115 -48 0 17 -65 61 -104 71 -26 6 -26 8 -21 73 14 158 22
182 40 119z m-830 -74 c-37 -48 -43 -36 -9 16 16 23 30 37 32 31 2 -6 -8 -28
-23 -47z m800 -191 c-7 -50 -11 -60 -21 -51 -9 10 7 98 18 98 7 0 8 -18 3 -47z
m85 -27 c0 -2 -12 -11 -27 -20 l-28 -17 24 20 c23 21 31 25 31 17z m-65 -46
c-3 -5 -12 -10 -18 -10 -7 0 -6 4 3 10 19 12 23 12 15 0z"/>
<path d="M1955 2220 c-3 -5 -1 -10 4 -10 6 0 11 5 11 10 0 6 -2 10 -4 10 -3 0
-8 -4 -11 -10z"/>
<path d="M2064 2209 c0 -13 3 -15 13 -7 7 6 13 12 13 13 0 2 -6 5 -13 8 -7 3
-13 -3 -13 -14z"/>
<path d="M2040 1961 c0 -15 81 -63 97 -57 21 8 8 23 -42 46 -49 22 -55 24 -55
11z"/>
<path d="M934 1902 c-41 -33 -58 -105 -34 -142 8 -12 10 -11 10 7 0 20 2 20
30 -9 26 -25 36 -29 63 -24 18 3 40 16 49 27 16 19 19 19 24 4 10 -26 24 2 24
49 0 54 -52 106 -106 106 -22 0 -49 -8 -60 -18z m102 -39 c14 -56 -50 -87 -81
-39 -24 36 -6 66 40 66 29 0 36 -4 41 -27z"/>
<path d="M1294 1886 c-27 -27 -34 -42 -34 -72 0 -22 5 -46 10 -54 8 -12 10
-10 10 9 0 22 1 22 30 -9 26 -28 35 -32 63 -26 17 3 42 17 54 31 l22 25 4 -23
c3 -20 4 -20 16 8 28 67 -26 145 -101 145 -32 0 -47 -7 -74 -34z m116 -11 c17
-20 5 -62 -20 -70 -31 -10 -59 4 -66 31 -8 31 11 54 46 54 15 0 33 -7 40 -15z"/>
<path d="M1094 1695 c-8 -21 11 -42 52 -55 28 -10 40 -9 72 7 24 11 38 26 40
41 4 27 -12 28 -45 2 -14 -11 -31 -20 -38 -20 -7 0 -24 9 -38 20 -30 24 -36
25 -43 5z"/>
<path d="M1388 1673 c-23 -6 -31 -34 -14 -51 17 -17 63 -19 79 -3 23 23 -25
63 -65 54z"/>
<path d="M921 1656 c-28 -34 12 -67 55 -47 37 17 29 55 -12 59 -19 2 -36 -3
-43 -12z"/>
<path d="M1960 1876 c0 -8 119 -74 124 -68 15 14 3 33 -34 52 -34 17 -90 27
-90 16z"/>
<path d="M782 1660 c0 -14 2 -19 5 -12 2 6 2 18 0 25 -3 6 -5 1 -5 -13z"/>
<path d="M683 1153 c4 -7 3 -14 -3 -18 -15 -9 -12 -25 4 -25 8 0 21 -7 29 -15
13 -12 15 -12 20 5 4 14 -4 26 -26 42 -17 12 -27 17 -24 11z"/>
<path d="M2182 1120 c0 -19 2 -27 5 -17 2 9 2 25 0 35 -3 9 -5 1 -5 -18z"/>
<path d="M1708 1053 c-21 -2 -38 -9 -38 -14 0 -15 83 -6 88 9 2 6 0 11 -5 10
-4 -1 -25 -3 -45 -5z"/>
<path d="M2341 950 l-4 -55 -7 40 c-4 24 -8 -27 -9 -131 -1 -141 -5 -184 -21
-237 -35 -114 -141 -232 -264 -294 -111 -57 -107 -56 -701 -60 -350 -3 -579 0
-630 6 -150 20 -300 115 -383 243 -66 102 -82 173 -82 356 0 85 -3 152 -7 148
-13 -13 -22 -278 -12 -345 16 -106 68 -203 152 -285 64 -63 193 -150 172 -116
-6 10 -4 12 9 7 10 -4 30 -10 44 -14 24 -6 24 -7 7 -13 -15 -5 -7 -10 33 -19
29 -6 61 -11 70 -11 15 0 15 2 2 11 -11 8 -6 8 20 2 30 -7 217 -8 650 -5 58 0
199 0 313 -1 142 0 211 3 215 10 4 6 36 21 72 34 36 12 83 32 106 45 22 13 44
21 47 18 13 -13 129 122 161 188 46 90 57 171 54 368 -2 91 -5 140 -7 110z"/>
<path d="M1006 901 c-23 -25 -74 -28 -116 -6 -17 9 -30 12 -30 7 0 -19 40 -44
77 -49 32 -4 45 0 68 19 15 13 26 30 24 37 -3 9 -10 6 -23 -8z"/>
<path d="M1610 902 c0 -24 39 -42 93 -42 31 0 57 2 57 4 0 2 3 12 7 21 5 15 3
16 -15 6 -30 -16 -94 -14 -120 5 -12 8 -22 11 -22 6z"/>
<path d="M1690 810 c-8 -5 -10 -10 -5 -10 6 0 17 5 25 10 8 5 11 10 5 10 -5 0
-17 -5 -25 -10z"/>
<path d="M1577 724 c-3 -3 -25 -7 -49 -8 -29 -2 -44 -7 -46 -17 -2 -12 5 -14
31 -11 22 2 38 -2 46 -12 20 -23 -3 -46 -45 -46 -24 0 -34 -5 -34 -15 0 -11
12 -15 44 -15 52 0 75 -20 51 -44 -21 -21 -103 -21 -133 0 -18 12 -22 25 -23
72 0 31 -3 52 -5 46 -7 -16 -62 -4 -67 15 -3 9 -5 -19 -6 -61 l-1 -78 69 -45
c38 -25 80 -45 95 -45 36 0 155 76 162 104 3 12 4 45 2 72 l-3 49 -53 -2 c-53
-2 -54 -1 -36 18 15 17 17 38 1 23z"/>
<path d="M727 714 c-14 -14 -6 -24 19 -24 16 0 24 5 22 13 -5 14 -31 21 -41
11z"/>
<path d="M1150 710 l-45 -7 42 -1 c23 -1 45 3 48 8 3 6 5 9 3 8 -2 0 -23 -4
-48 -8z"/>
<path d="M1900 710 l-45 -7 48 -1 c26 -1 47 3 47 8 0 6 -1 9 -2 8 -2 0 -23 -4
-48 -8z"/>
<path d="M823 681 c-10 -15 -9 -22 2 -31 20 -17 19 -53 -3 -80 -14 -18 -32
-24 -74 -28 -49 -4 -57 -2 -72 19 -10 14 -16 45 -17 79 -1 32 -4 47 -7 35 -9
-27 -58 -33 -65 -8 -3 10 -4 -13 -4 -51 l2 -69 70 -43 c39 -24 81 -44 95 -44
14 0 56 20 93 45 l67 45 -1 68 c-1 37 -4 57 -6 45 -2 -12 -13 -25 -23 -28 -10
-3 -21 -14 -23 -23 -4 -13 -5 -11 -6 5 0 12 -6 25 -11 28 -6 3 -7 17 -4 31 7
29 3 31 -13 5z"/>
<path d="M1185 641 c-3 -6 -24 -11 -46 -11 -28 0 -39 -4 -39 -15 0 -25 77 -20
90 6 12 21 7 39 -5 20z"/>
<path d="M1935 641 c-3 -6 -24 -11 -46 -11 -21 0 -39 -4 -39 -10 0 -16 76 -12
90 5 7 9 10 18 7 21 -3 3 -8 1 -12 -5z"/>
<path d="M720 621 c0 -17 6 -21 31 -21 24 0 30 4 27 18 -2 10 -14 18 -31 20
-22 3 -27 -1 -27 -17z"/>
<path d="M1040 564 c0 -14 -2 -16 -9 -5 -7 11 -11 10 -19 -5 -8 -15 -13 -16
-26 -5 -9 7 -16 11 -16 7 0 -12 135 -96 155 -96 19 0 155 84 155 96 0 3 -4 3
-9 0 -5 -4 -22 -1 -37 4 -21 8 -31 7 -45 -6 -25 -22 -116 -15 -136 12 -12 17
-13 17 -13 -2z"/>
<path d="M1790 565 c0 -8 9 -24 20 -35 11 -11 20 -27 20 -35 0 -9 12 -21 26
-27 21 -10 31 -9 57 5 44 24 88 59 63 50 -17 -5 -18 -3 -12 23 7 27 7 28 -12
11 -28 -25 -116 -23 -142 3 -16 16 -20 17 -20 5z"/>
<path d="M2203 473 c-16 -15 -36 -37 -44 -49 -22 -34 -114 -108 -161 -131 -24
-12 -61 -24 -82 -27 -46 -7 -60 -16 -27 -16 87 0 238 89 310 183 48 62 50 86
4 40z"/>
<path d="M380 416 c0 -2 8 -10 18 -17 15 -13 16 -12 3 4 -13 16 -21 21 -21 13z"/>
<path d="M514 305 c22 -17 40 -20 32 -6 -3 5 -16 11 -28 14 -22 6 -22 5 -4 -8z"/>
<path d="M580 275 c14 -8 30 -14 35 -14 6 0 -1 6 -15 14 -14 8 -29 14 -35 14
-5 0 1 -6 15 -14z"/>
<path d="M718 243 c6 -2 18 -2 25 0 6 3 1 5 -13 5 -14 0 -19 -2 -12 -5z"/>
</g>
</svg>
